<?xml version="1.0" encoding="utf-8"?>
<svg xmlns="http://www.w3.org/2000/svg" viewBox="168.3109 101.5828 150.823 150.823" width="150.823px" height="150.823px" xmlns:bx="https://boxy-svg.com"><defs><linearGradient id="gradient-1-0" href="#gradient-1" gradientUnits="userSpaceOnUse" x1="272.215" y1="99.127" x2="272.215" y2="203.072" gradientTransform="matrix(1, 0, 0, 1, 1.092041, -0.000004)"/><linearGradient id="gradient-1" bx:pinned="true"><stop offset="0" style="stop-color: rgb(72, 148, 255);"/><stop offset="0.65" style="stop-color: rgb(132, 52, 255);"/></linearGradient></defs><g transform="matrix(1, 0, 0, 1, -29.585130691528377, 12.000802993774414)" id="object-0"><g><rect x="197.896" y="89.582" width="150.823" height="150.823" style="fill: rgb(255, 255, 255);" rx="18.936" ry="18.936"/><path d="M 291.364 142.817 C 288.911 142.808 288.892 144.669 288.897 146.777 C 288.943 161.728 288.967 175.45 288.967 187.939 C 288.97 191.623 287.839 194.815 285.576 197.514 C 283.291 200.237 280.379 201.977 276.841 202.732 C 269.528 204.294 261.581 200.367 259.142 193.167 C 258.629 191.662 258.376 188.864 258.382 184.772 C 258.403 169.124 258.408 155.958 258.396 145.275 C 258.396 143.195 256.843 142.804 254.973 142.813 C 248.051 142.844 241.471 142.813 235.231 142.719 C 232.083 142.673 231.608 139.842 233.566 137.901 C 237.337 134.155 249.77 121.731 270.862 100.63 C 272.481 99.012 273.721 98.428 275.549 100.261 C 286.77 111.487 299.281 124.032 313.083 137.892 C 314.962 139.781 314.584 142.775 311.338 142.804 C 306.298 142.844 299.64 142.849 291.364 142.817 Z" style="stroke-width: 1; fill: url(&quot;#gradient-1-0&quot;); transform-box: fill-box; transform-origin: 49.0619% 48.6221%;"/><path d="M 248.165 154.514 C 248.304 154.514 248.416 154.627 248.416 154.766 C 248.45 168.291 248.454 178.727 248.425 186.073 C 248.402 191.512 248.976 196.296 251.681 200.848 C 259.133 213.384 275.615 216.588 287.545 208.618 C 293.048 204.94 296.555 199.66 298.066 192.779 C 298.384 191.343 298.537 188.843 298.528 185.281 C 298.524 183.511 298.52 174.139 298.514 157.163 C 298.514 155.153 299.764 154.556 301.686 154.556 C 305.292 154.559 308.415 154.558 311.055 154.551 C 313.069 154.546 313.965 155.349 313.97 157.392 C 313.994 169.008 313.991 179.111 313.96 187.701 C 313.938 193.357 313.016 198.5 311.194 203.128 C 306.937 213.962 298.425 222.152 287.484 226.228 C 272.714 231.736 256.256 228.327 244.89 217.059 C 238.996 211.214 235.197 204.11 233.497 195.746 C 232.9 192.814 232.611 188.13 232.63 181.694 C 232.66 170.713 232.669 162.447 232.657 156.897 C 232.653 154.887 234.285 154.481 236.253 154.514 C 238.315 154.549 242.285 154.549 248.165 154.514 Z" style="stroke-width: 1;" fill="#00172b"/></g></g></svg>