<?xml version="1.0" encoding="utf-8"?>
<svg xmlns="http://www.w3.org/2000/svg" viewBox="1.1346 23.6881 497.2818 446.7316" width="497.282px" height="446.732px" xmlns:bx="https://boxy-svg.com" preserveAspectRatio="none"><defs><linearGradient id="gradient-1-0" href="#gradient-1" gradientUnits="userSpaceOnUse" x1="272.215" y1="99.127" x2="272.215" y2="203.072" gradientTransform="matrix(1, 0, 0, 1, 1.092041, -0.000004)"/><linearGradient id="gradient-1" bx:pinned="true"><stop offset="0" style="stop-color: rgb(72, 148, 255);"/><stop offset="0.65" style="stop-color: rgb(132, 52, 255);"/></linearGradient></defs><g style="" transform="matrix(1.590047001838684, 0, 0, 1.590047001838684, -136.1464385986328, -137.8333740234375)" id="object-3"><g><g transform="matrix(1, 0, 0, 1, -29.585131, 12.000803)" id="object-0"><g><rect x="197.896" y="89.582" width="150.823" height="150.823" style="fill: rgba(255, 255, 255, 0);" rx="18.936" ry="18.936"/><path d="M 291.364 142.817 C 288.911 142.808 288.892 144.669 288.897 146.777 C 288.943 161.728 288.967 175.45 288.967 187.939 C 288.97 191.623 287.839 194.815 285.576 197.514 C 283.291 200.237 280.379 201.977 276.841 202.732 C 269.528 204.294 261.581 200.367 259.142 193.167 C 258.629 191.662 258.376 188.864 258.382 184.772 C 258.403 169.124 258.408 155.958 258.396 145.275 C 258.396 143.195 256.843 142.804 254.973 142.813 C 248.051 142.844 241.471 142.813 235.231 142.719 C 232.083 142.673 231.608 139.842 233.566 137.901 C 237.337 134.155 249.77 121.731 270.862 100.63 C 272.481 99.012 273.721 98.428 275.549 100.261 C 286.77 111.487 299.281 124.032 313.083 137.892 C 314.962 139.781 314.584 142.775 311.338 142.804 C 306.298 142.844 299.64 142.849 291.364 142.817 Z" style="stroke-width: 1; fill: url(&quot;#gradient-1-0&quot;); transform-box: fill-box; transform-origin: 49.0619% 48.6221%;"/><path d="M 248.165 154.514 C 248.304 154.514 248.416 154.627 248.416 154.766 C 248.45 168.291 248.454 178.727 248.425 186.073 C 248.402 191.512 248.976 196.296 251.681 200.848 C 259.133 213.384 275.615 216.588 287.545 208.618 C 293.048 204.94 296.555 199.66 298.066 192.779 C 298.384 191.343 298.537 188.843 298.528 185.281 C 298.524 183.511 298.52 174.139 298.514 157.163 C 298.514 155.153 299.764 154.556 301.686 154.556 C 305.292 154.559 308.415 154.558 311.055 154.551 C 313.069 154.546 313.965 155.349 313.97 157.392 C 313.994 169.008 313.991 179.111 313.96 187.701 C 313.938 193.357 313.016 198.5 311.194 203.128 C 306.937 213.962 298.425 222.152 287.484 226.228 C 272.714 231.736 256.256 228.327 244.89 217.059 C 238.996 211.214 235.197 204.11 233.497 195.746 C 232.9 192.814 232.611 188.13 232.63 181.694 C 232.66 170.713 232.669 162.447 232.657 156.897 C 232.653 154.887 234.285 154.481 236.253 154.514 C 238.315 154.549 242.285 154.549 248.165 154.514 Z" style="stroke-width: 1;" fill="#00172b"/></g></g><g transform="matrix(1, 0, 0, 1, -29.152277, 12.000803)" id="object-1"><path d="M 234.974 264.592 L 244.512 264.592 C 244.667 264.592 244.794 264.464 244.791 264.307 C 244.777 261.784 244.521 257.941 245.155 255.604 C 246.894 249.183 253.195 245.107 259.668 244.645 C 263.107 244.4 266.321 244.528 269.313 245.032 C 269.553 245.073 269.728 245.28 269.728 245.522 L 269.728 254.514 C 269.727 254.662 269.596 254.774 269.453 254.751 C 267.161 254.4 264.806 254.3 262.388 254.453 C 256.292 254.835 257.034 259.807 256.945 264.368 C 256.942 264.493 257.043 264.596 257.169 264.596 L 269.439 264.596 C 269.599 264.596 269.728 264.726 269.728 264.885 L 269.728 274.712 C 269.728 274.846 269.619 274.954 269.485 274.954 L 257.187 274.954 C 257.061 274.954 256.959 275.057 256.959 275.183 L 256.959 314.885 C 256.959 314.962 256.898 315.025 256.824 315.025 L 245.062 315.025 C 244.912 315.025 244.791 314.902 244.791 314.75 L 244.791 275.187 C 244.791 275.069 244.693 274.973 244.572 274.973 L 234.872 274.973 C 234.779 274.973 234.704 274.898 234.704 274.805 L 234.704 264.862 C 234.704 264.713 234.824 264.592 234.974 264.592 Z" style="stroke-width: 1;" fill="#00172b"/><rect x="333.849" y="245.573" width="12.778" height="69.443" rx="0.36" style="stroke-width: 1;" fill="#00172b"/><rect x="355.807" y="245.573" width="12.732" height="11.174" rx="0.43" style="stroke-width: 1;" fill="#00172b"/><path d="M 143.104 304.429 C 149.707 304.429 154.908 301.682 156.764 295.116 C 157.379 292.933 157.515 289.855 157.501 287.285 C 157.488 284.543 157.488 270.829 157.501 246.142 C 157.501 246.06 157.567 245.993 157.65 245.993 L 170.615 245.993 C 170.679 245.993 170.731 246.045 170.731 246.109 C 170.75 264.938 170.742 279.36 170.708 289.374 C 170.702 291.812 170.482 294.141 170.051 296.361 C 167.402 309.993 156.185 316.513 143.099 316.508 C 130.01 316.503 118.798 309.974 116.163 296.342 C 115.724 294.122 115.511 291.794 115.511 289.356 C 115.483 279.341 115.483 264.92 115.511 246.091 C 115.511 246.026 115.561 245.974 115.632 245.974 L 128.594 245.984 C 128.679 245.984 128.742 246.05 128.742 246.132 C 128.742 270.819 128.728 284.534 128.714 287.276 C 128.7 289.845 128.834 292.924 129.451 295.102 C 131.299 301.672 136.498 304.424 143.104 304.429 Z" style="stroke-width: 1;" fill="#00172b"/><path d="M 191.704 270.869 C 192.138 270.412 192.767 269.349 193.364 268.812 C 196.607 265.909 200.167 264.17 204.045 263.598 C 211.351 262.523 217.734 264.368 223.193 269.134 C 231.565 276.437 234.023 288.605 230.954 298.921 C 227.008 312.18 212.682 319.945 199.488 314.801 C 196.966 313.819 194.515 312.087 192.133 309.606 C 192.116 309.588 192.085 309.596 192.078 309.62 C 192.077 309.623 192.077 309.626 192.077 309.629 L 192.077 332.178 C 192.077 332.235 192.031 332.281 191.975 332.281 L 180.007 332.281 C 179.83 332.281 179.686 332.139 179.686 331.963 L 179.686 264.61 C 179.686 264.567 179.721 264.531 179.765 264.531 L 191.545 264.531 C 191.594 264.531 191.634 264.573 191.634 264.624 L 191.634 270.841 C 191.637 270.873 191.673 270.891 191.7 270.872 C 191.701 270.872 191.703 270.87 191.704 270.869 Z M 205.637 274.232 C 197.807 274.15 191.385 281.164 191.294 289.898 C 191.203 298.632 197.476 305.778 205.306 305.86 C 213.136 305.942 219.557 298.929 219.648 290.195 C 219.74 281.461 213.466 274.315 205.637 274.232 Z" style="stroke-width: 1;" fill="#00172b"/><path d="M 301.852 263.472 C 316.971 264.923 327.553 277.1 326.075 292.462 C 324.597 307.829 311.893 317.763 296.768 316.307 C 281.648 314.852 271.066 302.68 272.545 287.318 C 274.023 271.951 286.732 262.017 301.852 263.472 Z M 284.937 289.976 C 284.949 291.528 285.095 292.991 285.375 294.365 C 286.788 301.304 292.258 305.698 299.39 305.642 C 306.516 305.59 311.921 301.113 313.231 294.155 C 313.489 292.778 313.612 291.312 313.599 289.757 C 313.587 288.206 313.441 286.743 313.161 285.368 C 311.748 278.429 306.278 274.036 299.147 274.092 C 292.02 274.143 286.615 278.62 285.305 285.579 C 285.047 286.956 284.924 288.422 284.937 289.976 Z" style="stroke-width: 1;" fill="#00172b"/><path d="M 374.862 284.546 C 377.72 270.114 391.871 260.758 406.47 263.648 C 421.069 266.539 430.587 280.582 427.73 295.015 C 424.872 309.447 410.721 318.803 396.122 315.913 C 381.523 313.021 372.005 298.979 374.862 284.546 Z M 387.081 289.986 C 387.09 291.534 387.235 292.992 387.515 294.36 C 388.928 301.281 394.38 305.655 401.487 305.599 C 408.595 305.548 413.977 301.085 415.283 294.15 C 415.54 292.776 415.663 291.314 415.651 289.766 C 415.638 288.218 415.492 286.76 415.213 285.392 C 413.804 278.471 408.352 274.096 401.245 274.152 C 394.137 274.203 388.751 278.666 387.45 285.601 C 387.191 286.976 387.069 288.437 387.081 289.986 Z" style="stroke-width: 1;" fill="#00172b"/><rect x="355.807" y="264.54" width="12.751" height="50.471" rx="0.43" style="stroke-width: 1;" fill="#00172b"/></g><g transform="matrix(1, 0, 0, 1, -26.278727, 12.000803)" id="object-2"><rect x="161.745" y="347.195" width="2.407" height="18.067" rx="0.44" style="stroke-width: 1;" fill="#00172b"/><path d="M 204.931 363.667 C 204.562 363.985 204.142 364.684 203.531 364.959 C 200.22 366.452 196.592 364.894 195.486 361.382 C 194.246 357.427 196.34 352.405 201.172 352.643 C 202.533 352.708 203.743 353.253 204.8 354.28 C 204.867 354.344 204.979 354.311 205.002 354.221 C 205.004 354.212 205.005 354.201 205.005 354.191 L 205.005 347.433 C 205.005 347.274 205.134 347.144 205.294 347.144 L 207.262 347.144 C 207.442 347.144 207.589 347.29 207.589 347.471 L 207.589 364.959 C 207.589 365.168 207.421 365.337 207.216 365.337 L 205.56 365.337 C 205.331 365.337 205.145 365.149 205.145 364.917 L 205.145 363.766 C 205.143 363.665 205.033 363.604 204.947 363.656 C 204.941 363.659 204.936 363.663 204.931 363.667 Z M 201.467 354.864 C 199.48 354.812 197.819 356.64 197.759 358.947 C 197.698 361.254 199.261 363.167 201.248 363.218 C 203.236 363.271 204.897 361.443 204.957 359.135 C 205.018 356.829 203.455 354.916 201.467 354.864 Z" style="stroke-width: 1;" fill="#00172b"/><path d="M 239.521 354.298 C 240.631 353.055 242.097 352.539 243.919 352.75 C 246.703 353.076 247.44 355.38 247.496 357.871 C 247.515 358.707 247.527 361.078 247.533 364.983 C 247.533 365.163 247.387 365.309 247.207 365.309 L 245.272 365.309 C 245.089 365.309 244.942 365.16 244.945 364.978 C 244.954 364.322 244.954 362.011 244.945 358.043 C 244.94 356.868 244.619 355.287 243.234 355.147 C 240.557 354.874 239.24 356.11 239.284 358.854 C 239.321 361.006 239.344 363.027 239.353 364.917 C 239.353 365.121 239.188 365.286 238.985 365.286 L 236.975 365.286 C 236.784 365.286 236.63 365.129 236.63 364.936 L 236.63 347.457 C 236.63 347.307 236.751 347.186 236.9 347.186 L 238.994 347.186 C 239.136 347.186 239.25 347.301 239.25 347.442 L 239.25 354.195 C 239.249 354.314 239.376 354.39 239.48 354.332 C 239.495 354.323 239.509 354.312 239.521 354.298 Z" style="stroke-width: 1;" fill="#00172b"/><path d="M 349.785 354.172 C 349.783 354.291 349.911 354.367 350.014 354.309 C 350.03 354.3 350.044 354.289 350.056 354.275 C 351.169 353.032 352.638 352.515 354.463 352.726 C 357.252 353.053 357.989 355.357 358.045 357.852 C 358.063 358.692 358.076 361.065 358.082 364.973 C 358.082 365.154 357.936 365.3 357.756 365.3 L 355.816 365.304 C 355.632 365.305 355.484 365.153 355.489 364.968 C 355.498 364.313 355.498 361.998 355.489 358.024 C 355.484 356.849 355.163 355.268 353.777 355.124 C 351.094 354.85 349.774 356.089 349.818 358.84 C 349.858 360.995 349.883 363.019 349.892 364.912 C 349.892 365.116 349.727 365.281 349.524 365.281 L 347.51 365.281 C 347.319 365.281 347.165 365.125 347.165 364.932 L 347.16 347.424 C 347.16 347.275 347.281 347.153 347.43 347.153 L 349.529 347.153 C 349.67 347.153 349.785 347.268 349.785 347.41 L 349.785 354.172 Z" style="stroke-width: 1;" fill="#00172b"/><circle cx="362.937" cy="348.823" r="1.669" style="stroke-width: 1;" fill="#00172b"/><path d="M 399.832 363.784 C 399.835 363.688 399.732 363.623 399.646 363.669 C 399.638 363.674 399.629 363.679 399.622 363.686 C 399.253 363.999 398.838 364.689 398.232 364.959 C 394.949 366.419 391.371 364.861 390.294 361.387 C 389.086 357.47 391.18 352.517 395.956 352.773 C 397.299 352.842 398.491 353.386 399.533 354.406 C 399.6 354.47 399.712 354.438 399.735 354.347 C 399.737 354.338 399.738 354.331 399.738 354.321 L 399.766 347.639 C 399.766 347.48 399.896 347.352 400.056 347.354 L 402 347.363 C 402.18 347.363 402.324 347.51 402.322 347.69 L 402.243 364.978 C 402.24 365.184 402.073 365.35 401.87 365.347 L 400.233 365.342 C 400.006 365.34 399.824 365.151 399.827 364.922 L 399.832 363.784 Z M 395.958 354.976 C 393.964 355.088 392.453 357.031 392.58 359.318 C 392.709 361.604 394.428 363.367 396.421 363.255 C 398.413 363.144 399.926 361.2 399.798 358.914 C 399.67 356.628 397.951 354.865 395.958 354.976 Z" style="stroke-width: 1;" fill="#00172b"/><path d="M 233.719 352.867 L 231.276 352.867 C 231.184 352.866 231.104 352.801 231.089 352.712 C 230.681 350.76 229.562 349.827 227.731 349.914 C 226.609 349.964 225.858 350.256 225.479 350.791 C 224.411 352.293 225.264 353.865 226.804 354.559 C 229.028 355.557 233.253 355.688 233.794 359.167 C 234.573 364.176 230.18 366.111 226.001 365.277 C 223.392 364.757 221.944 362.98 221.654 359.946 C 221.649 359.878 221.698 359.818 221.766 359.811 L 224.276 359.573 C 224.343 359.568 224.403 359.617 224.411 359.685 C 224.725 362.268 226.18 363.368 228.776 362.982 C 231.467 362.586 231.938 359.102 229.135 358.239 C 225.624 357.162 221.668 356.369 222.191 351.621 C 222.643 347.513 227.829 346.785 230.8 348.072 C 232.587 348.843 233.6 350.398 233.836 352.736 C 233.845 352.806 233.789 352.867 233.719 352.867 Z" style="stroke-width: 1;" fill="#00172b"/><path d="M 311.939 362.59 C 309.722 365.239 306.918 366.161 303.526 365.356 C 299.04 364.296 296.825 361.305 296.885 356.383 C 296.945 351.318 300.592 347.61 305.718 347.536 C 310.021 347.468 312.866 349.343 314.252 353.165 C 314.356 353.452 314.143 353.755 313.837 353.753 L 312.089 353.753 C 311.737 353.753 311.418 353.545 311.273 353.221 C 310.374 351.196 308.854 350.11 306.716 349.961 C 303.401 349.727 301.214 351.096 300.154 354.065 C 298.778 357.922 300.411 362.81 305.088 363.099 C 308.449 363.304 310.637 361.96 311.65 359.069 C 311.717 358.876 311.574 358.675 311.37 358.672 L 305.928 358.672 C 305.793 358.672 305.686 358.566 305.686 358.435 L 305.686 356.332 C 305.686 356.177 305.81 356.052 305.965 356.052 L 314.131 356.052 C 314.293 356.052 314.425 356.186 314.425 356.35 L 314.425 364.889 C 314.425 365.104 314.252 365.277 314.038 365.277 L 312.588 365.277 C 312.332 365.277 312.126 365.07 312.126 364.815 L 312.126 362.66 C 312.124 362.577 312.033 362.528 311.963 362.571 C 311.954 362.576 311.946 362.583 311.939 362.59 Z" style="stroke-width: 1;" fill="#00172b"/><path d="M 136.215 365.468 C 130.74 365.454 129.323 362.054 129.302 357.227 C 129.288 353.559 129.288 350.53 129.302 348.142 C 129.302 348.049 129.38 347.974 129.479 347.974 L 131.908 347.974 C 132.001 347.974 132.071 348.05 132.071 348.142 C 132.043 350.613 132.029 353.602 132.029 357.106 C 132.029 360.067 132.631 362.902 136.222 362.912 C 139.813 362.921 140.429 360.09 140.443 357.129 C 140.458 353.625 140.458 350.635 140.443 348.161 C 140.443 348.071 140.514 347.998 140.606 347.998 L 143.039 348.007 C 143.134 348.007 143.211 348.082 143.211 348.175 C 143.214 350.562 143.199 353.591 143.169 357.259 C 143.122 362.086 141.686 365.482 136.215 365.468 Z" style="stroke-width: 1;" fill="#00172b"/><path d="M 330.804 355.124 C 330.681 355.124 330.58 355.023 330.58 354.9 L 330.58 353.062 C 330.58 352.921 330.695 352.806 330.836 352.806 L 331.657 352.806 C 332.211 352.806 332.66 352.354 332.66 351.798 L 332.66 349.387 C 332.66 349.205 332.808 349.056 332.992 349.056 L 334.791 349.056 C 334.927 349.056 335.039 349.167 335.039 349.303 L 335.039 352.582 C 335.039 352.708 335.143 352.811 335.272 352.811 L 337.455 352.811 C 337.663 352.811 337.832 352.98 337.832 353.188 L 337.832 354.811 C 337.832 354.994 337.684 355.142 337.501 355.142 L 335.291 355.142 C 335.141 355.142 335.02 355.263 335.02 355.413 L 335.015 361.62 C 335.012 362.267 335.45 362.834 336.078 362.996 C 336.501 363.108 336.976 363.092 337.501 362.949 C 337.732 362.888 337.958 363.059 337.958 363.294 L 337.958 364.759 C 337.959 365.027 337.763 365.257 337.496 365.3 C 334.349 365.827 332.576 364.894 332.516 361.545 C 332.481 359.558 332.48 357.48 332.511 355.31 C 332.514 355.208 332.429 355.124 332.324 355.124 L 330.804 355.124 Z" style="stroke-width: 1;" fill="#00172b"/><path d="M 173.49 352.532 C 176.979 352.612 179.742 355.586 179.66 359.175 C 179.579 362.765 176.685 365.611 173.195 365.532 C 169.707 365.452 166.944 362.478 167.025 358.888 C 167.107 355.299 170.001 352.453 173.49 352.532 Z M 176.944 358.349 C 177.028 356.511 175.606 354.955 173.769 354.871 L 173.172 354.843 C 171.336 354.761 169.778 356.182 169.695 358.019 L 169.621 359.66 C 169.537 361.496 170.959 363.053 172.796 363.137 L 173.392 363.164 C 175.23 363.247 176.787 361.826 176.87 359.988 L 176.944 358.349 Z" style="stroke-width: 1;" fill="#00172b"/><path d="M 328.328 361.606 C 328.624 361.608 328.814 361.922 328.673 362.18 C 327.292 364.698 325.106 365.777 322.116 365.416 C 314.476 364.493 315.391 351.99 323.594 352.638 C 327.492 352.946 329.037 356.084 328.901 359.629 C 328.896 359.779 328.77 359.9 328.617 359.899 L 319.98 359.899 C 319.604 359.901 319.348 360.283 319.49 360.632 C 320.531 363.147 322.299 363.924 324.792 362.963 C 324.995 362.887 325.18 362.767 325.334 362.613 L 326.056 361.891 C 326.242 361.709 326.489 361.607 326.747 361.606 L 328.328 361.606 Z M 319.686 357.842 L 326.112 357.796 C 326.148 357.796 326.178 357.767 326.178 357.73 L 326.178 357.694 C 326.166 356.087 324.728 354.795 322.964 354.807 L 322.797 354.807 C 321.031 354.818 319.608 356.132 319.621 357.74 L 319.621 357.777 C 319.621 357.813 319.65 357.842 319.686 357.842 Z" style="stroke-width: 1;" fill="#00172b"/><path d="M 149.274 354.578 C 150.386 353.064 151.935 352.459 153.919 352.764 C 160.877 353.841 160.397 366.316 152.3 365.459 C 151.188 365.34 150.13 364.728 149.129 363.621 C 149.082 363.567 148.993 363.585 148.971 363.653 C 148.967 363.662 148.966 363.672 148.966 363.681 L 148.966 370.29 C 148.966 370.427 148.855 370.537 148.718 370.537 L 146.849 370.537 C 146.676 370.537 146.536 370.398 146.536 370.225 L 146.536 353.249 C 146.536 352.991 146.744 352.782 147.002 352.782 L 148.476 352.782 C 148.716 352.782 148.91 352.974 148.91 353.211 L 148.91 354.462 C 148.91 354.616 149.077 354.712 149.21 354.635 C 149.235 354.621 149.257 354.601 149.274 354.578 Z M 152.608 354.895 C 150.633 354.889 149.025 356.762 149.017 359.08 C 149.009 361.398 150.604 363.283 152.579 363.29 C 154.555 363.297 156.163 361.423 156.171 359.105 C 156.18 356.787 154.585 354.902 152.608 354.895 Z" style="stroke-width: 1;" fill="#00172b"/><path d="M 190.132 364.059 C 190.135 363.962 190.029 363.9 189.941 363.95 C 189.927 363.958 189.914 363.968 189.904 363.98 C 188.838 365.311 187.357 365.796 185.464 365.435 C 183.384 365.037 182.25 363.909 182.064 362.049 C 181.602 357.436 186.896 357.903 189.391 357.628 C 189.797 357.582 190.086 357.214 190.035 356.812 C 189.927 355.944 189.47 355.189 188.598 354.928 C 186.912 354.418 185.629 354.931 184.746 356.467 C 184.674 356.596 184.538 356.676 184.392 356.676 L 182.535 356.676 C 182.338 356.677 182.194 356.489 182.246 356.299 C 183.104 353.174 186.173 352.199 189.205 352.871 C 191.151 353.304 192.214 354.567 192.395 356.662 C 192.55 358.494 192.593 361.277 192.525 365.011 C 192.52 365.19 192.373 365.333 192.194 365.333 L 190.515 365.333 C 190.304 365.333 190.132 365.161 190.132 364.95 L 190.132 364.059 Z M 189.703 359.554 C 188.122 359.657 185.557 359.652 184.923 360.524 C 182.652 363.663 190.24 365.5 190.006 359.829 C 190.001 359.668 189.864 359.544 189.703 359.554 Z" style="stroke-width: 1;" fill="#00172b"/><path d="M 258.452 364.092 C 258.458 363.995 258.355 363.929 258.264 363.975 C 258.248 363.983 258.234 363.995 258.223 364.008 C 257.156 365.335 255.678 365.816 253.787 365.449 C 251.71 365.048 250.58 363.918 250.397 362.059 C 249.949 357.451 255.238 357.931 257.728 357.66 C 258.134 357.617 258.425 357.252 258.376 356.849 C 258.27 355.982 257.817 355.226 256.945 354.96 C 255.263 354.447 253.979 354.957 253.093 356.49 C 253.021 356.619 252.886 356.7 252.738 356.7 L 250.882 356.696 C 250.683 356.694 250.541 356.504 250.597 356.313 C 251.46 353.197 254.529 352.232 257.556 352.908 C 259.498 353.347 260.557 354.612 260.732 356.705 C 260.884 358.536 260.92 361.317 260.839 365.048 C 260.831 365.226 260.685 365.366 260.508 365.365 L 258.833 365.36 C 258.622 365.36 258.452 365.189 258.452 364.978 L 258.452 364.092 Z M 258.087 359.694 C 256.521 359.75 253.984 359.67 253.331 360.515 C 250.994 363.551 258.442 365.589 258.376 359.979 C 258.379 359.818 258.248 359.689 258.087 359.694 Z" style="stroke-width: 1;" fill="#00172b"/><path d="M 283.295 361.615 C 283.588 361.619 283.776 361.928 283.64 362.184 C 282.259 364.7 280.077 365.777 277.092 365.416 C 269.467 364.493 270.381 352.013 278.571 352.661 C 282.46 352.969 284.004 356.103 283.869 359.638 C 283.863 359.789 283.738 359.909 283.584 359.908 L 274.96 359.908 C 274.582 359.906 274.323 360.292 274.471 360.641 C 275.512 363.15 277.277 363.926 279.764 362.968 C 279.967 362.892 280.152 362.772 280.305 362.618 L 281.028 361.895 C 281.213 361.715 281.458 361.612 281.714 361.611 L 283.295 361.615 Z M 274.662 357.88 L 281.126 357.824 C 281.157 357.824 281.182 357.799 281.182 357.768 L 281.182 357.726 C 281.168 356.1 279.712 354.795 277.932 354.811 L 277.801 354.811 C 276.021 354.828 274.592 356.157 274.606 357.782 L 274.606 357.824 C 274.606 357.855 274.631 357.88 274.662 357.88 Z" style="stroke-width: 1;" fill="#00172b"/><path d="M 387.02 361.592 C 387.314 361.59 387.503 361.902 387.365 362.161 C 385.995 364.67 383.82 365.748 380.841 365.393 C 373.23 364.479 374.13 352.026 382.301 352.666 C 386.181 352.969 387.724 356.094 387.589 359.624 C 387.582 359.772 387.459 359.888 387.309 359.89 L 378.705 359.899 C 378.327 359.9 378.073 360.284 378.22 360.632 C 379.258 363.135 381.02 363.905 383.504 362.945 C 383.705 362.869 383.888 362.751 384.041 362.599 L 384.759 361.877 C 384.943 361.694 385.192 361.592 385.449 361.592 L 387.02 361.592 Z M 378.505 357.871 L 384.847 357.815 C 384.883 357.815 384.912 357.786 384.912 357.75 L 384.912 357.712 C 384.898 356.069 383.473 354.748 381.732 354.765 L 381.564 354.765 C 379.823 354.781 378.424 356.125 378.439 357.768 L 378.439 357.805 C 378.439 357.842 378.468 357.871 378.505 357.871 Z" style="stroke-width: 1;" fill="#00172b"/><path d="M 266.673 354.765 C 266.819 354.656 267.076 354.382 267.443 353.944 C 268.24 352.983 269.7 352.638 270.875 352.773 C 271.015 352.79 271.119 352.906 271.118 353.044 L 271.118 355.077 C 271.119 355.205 271.008 355.307 270.88 355.296 C 268.159 355.054 266.757 356.361 266.673 359.219 C 266.648 360.071 266.662 361.989 266.715 364.973 C 266.72 365.16 266.571 365.314 266.384 365.314 L 264.365 365.314 C 264.199 365.314 264.066 365.18 264.066 365.015 L 264.066 353.244 C 264.066 352.981 264.279 352.768 264.542 352.768 L 266.091 352.768 C 266.289 352.768 266.45 352.93 266.45 353.127 L 266.45 354.648 C 266.452 354.759 266.571 354.828 266.663 354.771 C 266.666 354.77 266.67 354.768 266.673 354.765 Z" style="stroke-width: 1;" fill="#00172b"/><rect x="-1.329" y="-6.24" transform="matrix(0.999998, -0.001745, 0.001745, 0.999998, 362.969513, 359.031677)" width="2.658" height="12.48" rx="0.63" style="stroke-width: 1;" fill="#00172b"/><path d="M 369.984 354.666 C 369.98 354.774 370.094 354.846 370.19 354.795 C 370.196 354.792 370.202 354.787 370.208 354.783 C 370.351 354.674 370.606 354.403 370.973 353.967 C 371.765 353.011 373.216 352.67 374.386 352.806 C 374.521 352.823 374.623 352.936 374.624 353.071 L 374.624 355.096 C 374.622 355.221 374.515 355.319 374.391 355.31 C 371.686 355.071 370.292 356.372 370.208 359.214 C 370.183 360.06 370.196 361.967 370.25 364.936 C 370.252 365.121 370.103 365.272 369.919 365.272 L 367.913 365.272 C 367.75 365.272 367.617 365.141 367.615 364.978 L 367.615 353.272 C 367.615 353.012 367.826 352.801 368.086 352.801 L 369.625 352.801 C 369.821 352.801 369.981 352.959 369.984 353.156 L 369.984 354.666 Z" style="stroke-width: 1;" fill="#00172b"/><circle cx="212.262" cy="363.616" r="1.828" style="stroke-width: 1;" fill="#00172b"/><circle cx="287.758" cy="363.644" r="1.819" style="stroke-width: 1;" fill="#00172b"/><circle cx="406.869" cy="363.616" r="1.819" style="stroke-width: 1;" fill="#00172b"/></g></g></g></svg>