<?xml version="1.0" encoding="utf-8"?>
<svg xmlns="http://www.w3.org/2000/svg" viewBox="201.7223 111.1279 81.9775 129.6846" width="81.9775px" height="129.685px" xmlns:bx="https://boxy-svg.com" preserveAspectRatio="none"><defs><linearGradient id="gradient-1-0" href="#gradient-1" gradientUnits="userSpaceOnUse" x1="272.215" y1="99.127" x2="272.215" y2="203.072"/><linearGradient id="gradient-1" bx:pinned="true"><stop offset="0" style="stop-color: rgb(72, 148, 255);"/><stop offset="0.65" style="stop-color: rgb(132, 52, 255);"/></linearGradient></defs><g transform="matrix(1, 0, 0, 1, -29.585130691528377, 12.000802993774414)" id="object-0"><path d="M 290.272 142.817 C 287.819 142.808 287.8 144.669 287.805 146.777 C 287.851 161.728 287.875 175.45 287.875 187.939 C 287.878 191.623 286.747 194.815 284.484 197.514 C 282.199 200.237 279.287 201.977 275.749 202.732 C 268.436 204.294 260.489 200.367 258.05 193.167 C 257.537 191.662 257.284 188.864 257.29 184.772 C 257.311 169.124 257.316 155.958 257.304 145.275 C 257.304 143.195 255.751 142.804 253.881 142.813 C 246.959 142.844 240.379 142.813 234.139 142.719 C 230.991 142.673 230.516 139.842 232.474 137.901 C 236.245 134.155 248.678 121.731 269.77 100.63 C 271.389 99.012 272.629 98.428 274.457 100.261 C 285.678 111.487 298.189 124.032 311.991 137.892 C 313.87 139.781 313.492 142.775 310.246 142.804 C 305.206 142.844 298.548 142.849 290.272 142.817 Z" style="stroke-width: 1; transform-box: fill-box; transform-origin: 49.0619% 48.6221%; fill: url(&quot;#gradient-1-0&quot;);"/><path d="M 247.464 154.514 C 247.603 154.514 247.715 154.627 247.715 154.766 C 247.749 168.291 247.753 178.727 247.724 186.073 C 247.701 191.512 248.275 196.296 250.98 200.848 C 258.432 213.384 274.914 216.588 286.844 208.618 C 292.347 204.94 295.854 199.66 297.365 192.779 C 297.683 191.343 297.836 188.843 297.827 185.281 C 297.823 183.511 297.819 174.139 297.813 157.163 C 297.813 155.153 299.063 154.556 300.985 154.556 C 304.591 154.559 307.714 154.558 310.354 154.551 C 312.368 154.546 313.264 155.349 313.269 157.392 C 313.293 169.008 313.29 179.111 313.259 187.701 C 313.237 193.357 312.315 198.5 310.493 203.128 C 306.236 213.962 297.724 222.152 286.783 226.228 C 272.013 231.736 255.555 228.327 244.189 217.059 C 238.295 211.214 234.496 204.11 232.796 195.746 C 232.199 192.814 231.91 188.13 231.929 181.694 C 231.959 170.713 231.968 162.447 231.956 156.897 C 231.952 154.887 233.584 154.481 235.552 154.514 C 237.614 154.549 241.584 154.549 247.464 154.514 Z" style="stroke-width: 1; fill: rgb(255, 255, 255);"/></g></svg>